<?xml version="1.0" encoding="utf-8"?>
<!-- Generator: Adobe Illustrator 21.0.0, SVG Export Plug-In . SVG Version: 6.00 Build 0)  -->
<svg version="1.1" id="Layer_1" xmlns="http://www.w3.org/2000/svg" xmlns:xlink="http://www.w3.org/1999/xlink" x="0px" y="0px"
	 viewBox="0 0 109.6 122.5" style="enable-background:new 0 0 109.6 122.5;" xml:space="preserve">
<style type="text/css">
	.st0{fill:#189CED;}
</style>
<title>logo</title>
<circle class="st0" cx="10.8" cy="34.3" r="8.2"/>
<path class="st0" d="M20.8,107.1l18.9-3c2.4-0.4,4.8-0.1,6.9,1.1c1.8,0.9,3.1,2.6,3.4,4.6l0.1,0.9c0.2,2.1-0.6,4.1-2.2,5.5
	c-1.7,1.7-4,2.8-6.4,3.1l-18.9,3c-2.4,0.4-4.8,0.1-6.9-1.1c-1.8-0.9-3.1-2.6-3.4-4.6l-0.1-0.9c-0.2-2.1,0.6-4.1,2.2-5.5
	C16.2,108.5,18.4,107.4,20.8,107.1z"/>
<path class="st0" d="M18.4,87.1l18.9-3c2.4-0.4,4.8-0.1,6.9,1.1c1.8,0.9,3.1,2.6,3.4,4.6l0.1,0.9c0.2,2.1-0.6,4.1-2.2,5.5
	c-1.7,1.7-4,2.8-6.4,3.1l-18.9,3c-2.4,0.4-4.8,0.1-6.9-1.1c-1.8-0.9-3.1-2.6-3.4-4.6l-0.1-0.9c-0.2-2.1,0.6-4.1,2.2-5.5
	C13.7,88.5,16,87.4,18.4,87.1z"/>
<path class="st0" d="M16,66.9l51.7-8.1c2.4-0.4,4.8-0.1,6.9,1.1c1.8,0.9,3.1,2.6,3.4,4.6l0.1,0.9c0.2,2.1-0.6,4.1-2.1,5.5
	c-1.7,1.7-4,2.8-6.4,3.2l-51.7,8.1c-2.4,0.5-4.8,0.1-6.9-1c-1.8-0.9-3.1-2.6-3.4-4.6l-0.1-0.9c-0.2-2.1,0.6-4.1,2.2-5.5
	C11.4,68.4,13.6,67.2,16,66.9z"/>
<path class="st0" d="M13.3,46.8l85.8-13.5c2.4-0.4,4.8-0.1,6.9,1.1c1.8,0.9,3.1,2.6,3.4,4.6l0.1,0.9c0.2,2.1-0.6,4.1-2.1,5.5
	c-1.7,1.7-4,2.8-6.4,3.1L15.2,62.1c-2.4,0.4-4.8,0.1-6.9-1.1c-1.8-0.9-3.1-2.6-3.4-4.6l-0.1-0.9c-0.2-2.1,0.6-4.1,2.2-5.5
	C8.7,48.3,10.9,47.2,13.3,46.8z"/>
<path class="st0" d="M47.4,21l49.4-7.9c2.4-0.4,4.8-0.1,6.9,1.1c1.8,0.9,3.1,2.6,3.4,4.6l0.1,0.9c0.2,2.1-0.6,4.1-2.1,5.5
	c-1.7,1.7-4,2.8-6.4,3.1l-49.5,7.9c-2.4,0.4-4.8,0.1-6.9-1.1c-1.8-0.9-3.1-2.6-3.4-4.6l-0.1-0.9c-0.2-2.1,0.6-4.1,2.2-5.5
	C42.7,22.4,45,21.3,47.4,21z"/>
<path class="st0" d="M8.7,6.7l41.6-6.6c2.4-0.4,4.8-0.1,6.9,1.1c1.8,0.9,3.1,2.6,3.4,4.6l0.1,0.9c0.2,2.1-0.6,4.1-2.2,5.5
	c-1.7,1.7-4,2.8-6.4,3.2l-41.6,6.6c-2.4,0.4-4.8,0.1-6.9-1.1c-1.8-0.9-3.1-2.6-3.4-4.6l-0.1-0.9c-0.2-2.1,0.6-4.1,2.2-5.5
	C4,8.1,6.2,7,8.7,6.7z"/>
<g>
	<g>
		<path class="st0" d="M105,83.9H65c-2.2,0-4,1.8-4,4v12.5h12.3l2.7-6.9c0.3-0.8,1.1-1.3,1.9-1.3c0.8,0,1.6,0.6,1.8,1.4l3.8,11.4
			l4.1-9.8c0.3-0.7,1-1.2,1.8-1.2c0.8,0,1.5,0.4,1.9,1.1l2.7,5.2h2.7c1.1,0,2,0.9,2,2c0,1.1-0.9,2-2,2h-3.9c-0.8,0-1.4-0.4-1.8-1.1
			l-1.3-2.5l-4.5,10.7c-0.3,0.7-1,1.2-1.8,1.2c0,0-0.1,0-0.1,0c-0.8,0-1.6-0.6-1.8-1.4l-3.7-11.2l-1.2,3c-0.3,0.8-1,1.3-1.9,1.3H61
			V117c0,2.2,1.8,4,4,4h40c2.2,0,4-1.8,4-4v-29C109,85.7,107.2,83.9,105,83.9z"/>
	</g>
</g>
</svg>
